<svg width="105" height="27" fill="none" xmlns="http://www.w3.org/2000/svg"><path d="M29.712 7.49v1.674h-5.31v3.69h4.14v1.674h-4.14V20H22.35V7.49h7.362zm6.204 12.672c-.936 0-1.782-.21-2.538-.63a4.67 4.67 0 01-1.782-1.8c-.432-.78-.648-1.68-.648-2.7 0-1.008.222-1.902.666-2.682a4.6 4.6 0 011.818-1.8c.768-.42 1.626-.63 2.574-.63s1.806.21 2.574.63a4.6 4.6 0 011.818 1.8c.444.78.666 1.674.666 2.682s-.228 1.902-.684 2.682a4.783 4.783 0 01-1.872 1.818c-.78.42-1.644.63-2.592.63zm0-1.782c.528 0 1.02-.126 1.476-.378.468-.252.846-.63 1.134-1.134.288-.504.432-1.116.432-1.836s-.138-1.326-.414-1.818c-.276-.504-.642-.882-1.098-1.134a3.003 3.003 0 00-1.476-.378c-.528 0-1.02.126-1.476.378-.444.252-.798.63-1.062 1.134-.264.492-.396 1.098-.396 1.818 0 1.068.27 1.896.81 2.484.552.576 1.242.864 2.07.864zm11.478 1.782c-.936 0-1.782-.21-2.538-.63a4.67 4.67 0 01-1.782-1.8c-.432-.78-.648-1.68-.648-2.7 0-1.008.222-1.902.666-2.682a4.6 4.6 0 011.818-1.8c.768-.42 1.626-.63 2.574-.63s1.806.21 2.574.63a4.6 4.6 0 011.818 1.8c.444.78.666 1.674.666 2.682s-.228 1.902-.684 2.682a4.783 4.783 0 01-1.872 1.818c-.78.42-1.644.63-2.592.63zm0-1.782c.528 0 1.02-.126 1.476-.378.468-.252.846-.63 1.134-1.134.288-.504.432-1.116.432-1.836s-.138-1.326-.414-1.818c-.276-.504-.642-.882-1.098-1.134a3.003 3.003 0 00-1.476-.378c-.528 0-1.02.126-1.476.378-.444.252-.798.63-1.062 1.134-.264.492-.396 1.098-.396 1.818 0 1.068.27 1.896.81 2.484.552.576 1.242.864 2.07.864zm6.493-3.384c0-.996.204-1.878.612-2.646a4.564 4.564 0 014.086-2.43 4.51 4.51 0 011.908.432c.636.276 1.14.648 1.512 1.116V6.68h2.07V20h-2.07v-1.494c-.336.48-.804.876-1.404 1.188-.588.312-1.266.468-2.034.468a4.532 4.532 0 01-2.376-.648 4.81 4.81 0 01-1.692-1.836c-.408-.792-.612-1.686-.612-2.682zm8.118.036c0-.684-.144-1.278-.432-1.782a2.907 2.907 0 00-1.098-1.152 2.896 2.896 0 00-1.476-.396c-.528 0-1.02.132-1.476.396-.456.252-.828.63-1.116 1.134-.276.492-.414 1.08-.414 1.764 0 .684.138 1.284.414 1.8.288.516.66.912 1.116 1.188.468.264.96.396 1.476.396.528 0 1.02-.132 1.476-.396a2.907 2.907 0 001.098-1.152c.288-.516.432-1.116.432-1.8zm8.887 5.094c-.84 0-1.596-.144-2.268-.432-.672-.3-1.2-.72-1.584-1.26-.384-.54-.576-1.17-.576-1.89h2.196c.048.54.258.984.63 1.332.384.348.918.522 1.602.522.708 0 1.26-.168 1.656-.504.396-.348.594-.792.594-1.332 0-.42-.126-.762-.378-1.026a2.375 2.375 0 00-.918-.612c-.36-.144-.864-.3-1.512-.468-.816-.216-1.482-.432-1.998-.648a3.381 3.381 0 01-1.296-1.044c-.36-.468-.54-1.092-.54-1.872 0-.72.18-1.35.54-1.89.36-.54.864-.954 1.512-1.242.648-.288 1.398-.432 2.25-.432 1.212 0 2.202.306 2.97.918.78.6 1.212 1.428 1.296 2.484H72.8c-.036-.456-.252-.846-.648-1.17-.396-.324-.918-.486-1.566-.486-.588 0-1.068.15-1.44.45-.372.3-.558.732-.558 1.296 0 .384.114.702.342.954.24.24.54.432.9.576.36.144.852.3 1.476.468.828.228 1.5.456 2.016.684.528.228.972.582 1.332 1.062.372.468.558 1.098.558 1.89a3.37 3.37 0 01-.522 1.8c-.336.564-.834 1.02-1.494 1.368-.648.336-1.416.504-2.304.504zm8.793-8.586c.348-.456.822-.84 1.422-1.152.6-.312 1.278-.468 2.034-.468.864 0 1.65.216 2.358.648a4.407 4.407 0 011.692 1.782c.408.768.612 1.65.612 2.646s-.204 1.89-.612 2.682a4.63 4.63 0 01-1.692 1.836 4.439 4.439 0 01-2.358.648c-.756 0-1.428-.15-2.016-.45a4.624 4.624 0 01-1.44-1.152v6.156h-2.052V10.082h2.052v1.458zm6.03 3.456c0-.684-.144-1.272-.432-1.764a2.748 2.748 0 00-1.116-1.134 2.896 2.896 0 00-1.476-.396 2.96 2.96 0 00-1.476.396A3.033 3.033 0 0080.1 13.25c-.276.504-.414 1.098-.414 1.782 0 .684.138 1.284.414 1.8.288.504.66.888 1.116 1.152.468.264.96.396 1.476.396.528 0 1.02-.132 1.476-.396.468-.276.84-.672 1.116-1.188.288-.516.432-1.116.432-1.8zm5.161-6.228c-.372 0-.684-.126-.936-.378a1.271 1.271 0 01-.378-.936c0-.372.126-.684.378-.936s.564-.378.936-.378c.36 0 .666.126.918.378s.378.564.378.936c0 .372-.126.684-.378.936a1.25 1.25 0 01-.918.378zm1.008 1.314V20h-2.052v-9.918h2.052zm7.698-.162c.781 0 1.477.162 2.089.486.624.324 1.11.804 1.458 1.44.348.636.522 1.404.522 2.304V20h-2.034v-5.544c0-.888-.222-1.566-.666-2.034-.444-.48-1.05-.72-1.819-.72-.767 0-1.38.24-1.836.72-.444.468-.666 1.146-.666 2.034V20h-2.05v-9.918h2.052v1.134a3.412 3.412 0 011.278-.954 4.178 4.178 0 011.673-.342z" fill="#333"/><circle cx="8" cy="13" r="8" fill="#FF922C"/><path d="M11 18c0-1.657-3-7.5-3-7.5S5 16.343 5 18a3 3 0 106 0z" fill="#fff"/></svg>